<svg xmlns="http://www.w3.org/2000/svg" viewBox="0 0 1400 900"><style>.b{fill:#fff;stroke:#333;}.t{font:14px sans-serif}</style><rect width="1400" height="900" fill="#fafafa"/><rect x="60" y="60" width="180" height="120" class="b"/><text x="70" y="90" class="t">Tenant</text><rect x="60" y="240" width="180" height="80" class="b"/><text x="70" y="270" class="t">User (roles, tenantId)</text><rect x="360" y="60" width="220" height="100" class="b"/><text x="370" y="90" class="t">Premise (status)</text><rect x="360" y="200" width="220" height="100" class="b"/><text x="370" y="230" class="t">Reservation</text><rect x="360" y="340" width="260" height="100" class="b"/><text x="370" y="370" class="t">Lease</text><rect x="700" y="340" width="140" height="70" class="b"/><text x="710" y="370" class="t">Accrual</text><rect x="880" y="330" width="240" height="100" class="b"/><text x="890" y="360" class="t">Invoice (status)</text><rect x="1160" y="330" width="140" height="70" class="b"/><text x="1170" y="370" class="t">Payment</text><path d="M150 240 L150 180" stroke="#333" fill="none" marker-end="url(#a)"/><path d="M470 200 L470 160" stroke="#333" fill="none" marker-end="url(#a)"/><path d="M470 200 L150 280" stroke="#333" fill="none" marker-end="url(#a)"/><path d="M490 340 L490 160" stroke="#333" fill="none" marker-end="url(#a)"/><path d="M620 370 L700 370" stroke="#333" fill="none" marker-end="url(#a)"/><path d="M820 370 L880 370" stroke="#333" fill="none" marker-end="url(#a)"/><path d="M1120 370 L1160 370" stroke="#333" fill="none" marker-end="url(#a)"/><defs><marker id="a" markerWidth="6" markerHeight="6" refX="5" refY="3" orient="auto"><path d="M0,0 L6,3 L0,6 z" fill="#333"/></marker></defs></svg>
