<svg xmlns="http://www.w3.org/2000/svg" viewBox="0 0 1400 700"><style>.b{fill:#fff;stroke:#333}.t{font:14px sans-serif}</style><rect width="1400" height="700" fill="#fafafa"/><rect x="40" y="40" width="640" height="620" class="b"/><text x="50" y="60" class="t">Frontend (React)</text><rect x="700" y="40" width="660" height="620" class="b"/><text x="710" y="60" class="t">Backend (NestJS)</text><rect x="60" y="100" width="600" height="60" class="b"/><text x="70" y="135" class="t">Выбор свободного помещения (Каталог)</text><rect x="60" y="180" width="600" height="60" class="b"/><text x="70" y="215" class="t">Кнопка «Арендовать и оплатить»</text><rect x="720" y="100" width="620" height="60" class="b"/><text x="730" y="135" class="t">POST /checkout/rent (проверка tenantId и статуса)</text><rect x="720" y="180" width="620" height="100" class="b"/><text x="730" y="215" class="t">Создать Lease(ACTIVE) → Accrual → Invoice → Payment → Premise=RENTED</text><rect x="60" y="260" width="600" height="60" class="b"/><text x="70" y="295" class="t">Показать успех, обновить «Мои счета/платежи»</text><path d="M360 160 L720 130" stroke="#333" fill="none" marker-end="url(#a)"/><path d="M360 220 L720 210" stroke="#333" fill="none" marker-end="url(#a)"/><path d="M1040 280 L360 290" stroke="#333" fill="none" marker-end="url(#a)"/><defs><marker id="a" markerWidth="6" markerHeight="6" refX="5" refY="3" orient="auto"><path d="M0,0 L6,3 L0,6 z" fill="#333"/></marker></defs></svg>
