<svg xmlns="http://www.w3.org/2000/svg" viewBox="0 0 1400 700"><style>.b{fill:#fff;stroke:#333}.t{font:14px sans-serif}</style><rect width="1400" height="700" fill="#fafafa"/><rect x="80" y="80" width="120" height="50" class="b" fill="#ffe6e6"/><text x="110" y="110" class="t">Login</text><rect x="260" y="80" width="140" height="50" class="b"/><text x="290" y="110" class="t">Catalog</text><rect x="260" y="160" width="180" height="50" class="b"/><text x="270" y="190" class="t">My Reservations</text><rect x="260" y="240" width="160" height="50" class="b"/><text x="270" y="270" class="t">My Invoices</text><rect x="260" y="320" width="160" height="50" class="b"/><text x="270" y="350" class="t">My Payments</text><rect x="560" y="60" width="180" height="50" class="b" fill="#e6ffe6"/><text x="570" y="90" class="t">Dashboard</text><rect x="560" y="120" width="180" height="50" class="b"/><text x="590" y="150" class="t">Premises</text><rect x="560" y="180" width="180" height="50" class="b"/><text x="600" y="210" class="t">Leases</text><rect x="560" y="240" width="180" height="50" class="b"/><text x="595" y="270" class="t">Invoices</text><rect x="560" y="300" width="180" height="50" class="b"/><text x="595" y="330" class="t">Payments</text><rect x="560" y="360" width="200" height="50" class="b"/><text x="565" y="390" class="t">Reservations</text><path d="M200 105 L260 105" stroke="#333" marker-end="url(#a)"/><path d="M330 130 L330 160" stroke="#333" marker-end="url(#a)"/><path d="M330 130 L330 240" stroke="#333" marker-end="url(#a)"/><path d="M330 130 L330 320" stroke="#333" marker-end="url(#a)"/><path d="M650 85 L650 120" stroke="#333" marker-end="url(#a)"/><path d="M650 145 L650 180" stroke="#333" marker-end="url(#a)"/><path d="M650 205 L650 240" stroke="#333" marker-end="url(#a)"/><path d="M650 265 L650 300" stroke="#333" marker-end="url(#a)"/><path d="M650 325 L650 360" stroke="#333" marker-end="url(#a)"/><defs><marker id="a" markerWidth="6" markerHeight="6" refX="5" refY="3" orient="auto"><path d="M0,0 L6,3 L0,6 z" fill="#333"/></marker></defs></svg>
